# xmcd
# Track frame offsets:
# 150
# 17855
# 28612
# 45401
# 56438
# 68292
# 80021
# 90698
# 108111
# 118638
# 126773
# 135148
#
# Disc length: 2157 seconds
# Revision: 0
# Processed by: cddbd v1.5.2PL0 Copyright (c) Steve Scherf et al.
# Submitted via: VisiTrax 2.10.2.252 - For more info visit www.synapsa.com
#
DISCID=8a086b0c
DTITLE=Various Artist - Country Christams 0001
DYEAR=1900
DGENRE=Christmas
TTITLE0=Joy To The World
TTITLE1=Away In A Manger
TTITLE2=O Come All Ye Faitful
TTITLE3=Rudolph
TTITLE4=Jingle Bells
TTITLE5=Santa Is Coming To Town
TTITLE6=Winter Wonderland
TTITLE7=The Christmas Song
TTITLE8=Silent Night
TTITLE9=Galloping Galloping
TTITLE10=Hark the Harold Angels Sing
TTITLE11=Silent Night
EXTD=
EXTT0=
EXTT1=
EXTT2=
EXTT3=
EXTT4=
EXTT5=
EXTT6=
EXTT7=
EXTT8=
EXTT9=
EXTT10=
EXTT11=
PLAYORDER=
